<?xml version="1.0" encoding="utf-8"?>
<!-- Generator: Adobe Illustrator 19.0.0, SVG Export Plug-In . SVG Version: 6.00 Build 0)  -->
<svg version="1.1" id="Layer_1" xmlns="http://www.w3.org/2000/svg" xmlns:xlink="http://www.w3.org/1999/xlink" x="0px" y="0px"
	 viewBox="0 0 100 100" style="enable-background:new 0 0 100 100;" xml:space="preserve">
<style type="text/css">
	.st0{fill:none;stroke:#6002EE;stroke-width:10;stroke-miterlimit:10;}
</style>
<g id="XMLID_3_">
	<path id="XMLID_13_" class="st0" d="M0,26c8.3,0,8.3,8,16.7,8c8.3,0,8.3-8,16.7-8c8.3,0,8.3,8,16.7,8c8.3,0,8.3-8,16.7-8
		c8.3,0,8.3,8,16.7,8s8.3-8,16.7-8"/>
</g>
<g id="XMLID_1_">
	<path id="XMLID_17_" class="st0" d="M0,46c8.3,0,8.3,8,16.7,8c8.3,0,8.3-8,16.7-8c8.3,0,8.3,8,16.7,8c8.3,0,8.3-8,16.7-8
		c8.3,0,8.3,8,16.7,8s8.3-8,16.7-8"/>
</g>
<g id="XMLID_4_">
	<path id="XMLID_15_" class="st0" d="M0,66c8.3,0,8.3,8,16.7,8c8.3,0,8.3-8,16.7-8c8.3,0,8.3,8,16.7,8c8.3,0,8.3-8,16.7-8
		c8.3,0,8.3,8,16.7,8s8.3-8,16.7-8"/>
</g>
</svg>
